# Blender 3.6.1
# www.blender.org
mtllib 杜宾犬 完成.mtl
o 头
v 0.000000 0.044632 -0.073990
v 0.000000 0.054191 -0.050526
v 0.000000 0.049846 -0.000123
v 0.000000 -0.055929 -0.018996
v 0.000000 0.010305 0.033769
v 0.000000 -0.051986 0.077818
v 0.000000 -0.000123 0.098511
v 0.020131 0.045527 -0.037396
v 0.040636 0.105709 -0.057667
v 0.016653 -0.001181 0.082680
v 0.018366 -0.043309 0.064470
v 0.028724 -0.043197 -0.048703
v 0.013499 0.004034 0.029235
v 0.032461 0.042705 -0.014216
v 0.026959 -0.046202 0.020658
v 0.032461 0.042382 -0.064540
v 0.016230 0.048287 -0.057533
v 0.043615 -0.011574 -0.060233
v 0.000000 -0.054347 0.019852
v 0.000000 -0.054347 0.019852
v 0.000000 -0.054347 0.019852
v 0.031829 -0.003770 -0.004528
v -0.020131 0.045527 -0.037396
v -0.040636 0.105709 -0.057667
v -0.016653 -0.001181 0.082680
v -0.018366 -0.043309 0.064470
v -0.028724 -0.043197 -0.048703
v -0.013499 0.004034 0.029235
v -0.032461 0.042705 -0.014216
v -0.026959 -0.046202 0.020658
v -0.032461 0.042382 -0.064540
v -0.016230 0.048287 -0.057533
v -0.043615 -0.011574 -0.060233
v -0.031829 -0.003770 -0.004528
v -0.000000 -0.131286 -0.288335
v -0.000000 -0.088972 -0.172766
v -0.000000 -0.143563 -0.044036
v 0.000000 -0.236535 -0.077278
v 0.118301 -0.616290 -0.662243
v 0.000000 -0.304780 -0.451415
v 0.000000 -0.309530 -0.520412
v 0.000000 -0.279087 -0.648352
v 0.000000 -0.251672 -0.477502
v -0.000000 -0.170024 -0.496975
v 0.085188 -0.616207 -0.166084
v 0.042844 -0.329895 -0.125883
v 0.085188 -0.617569 -0.084221
v 0.047398 -0.102753 -0.154045
v 0.038238 -0.137186 -0.284127
v -0.000000 -0.131286 -0.288335
v 0.000000 -0.155610 -0.433438
v 0.021100 -0.160710 -0.433197
v 0.054441 -0.165725 -0.100301
v 0.093143 -0.198557 -0.267322
v 0.000000 -0.348625 -0.142380
v 0.000000 -0.344043 -0.268884
v 0.101161 -0.257227 -0.265247
v 0.101161 -0.235054 -0.124556
v -0.000000 -0.162389 -0.553569
v 0.071746 -0.199786 -0.432677
v 0.038672 -0.289990 -0.438864
v 0.000000 -0.306830 -0.440893
v 0.065144 -0.253018 -0.433897
v 0.028069 -0.167374 -0.548309
v 0.083538 -0.202923 -0.534827
v 0.073028 -0.292920 -0.508699
v 0.000000 -0.321293 -0.506788
v 0.091555 -0.261594 -0.517001
v -0.000000 -0.198202 -0.646813
v 0.016005 -0.202099 -0.645455
v 0.067256 -0.234721 -0.633170
v 0.000000 -0.257033 -0.673166
v 0.028069 -0.258677 -0.668486
v 0.079966 -0.272102 -0.633141
v 0.000000 -0.312006 -0.656874
v 0.028069 -0.308582 -0.659426
v 0.107479 -0.300387 -0.135009
v 0.118301 -0.616290 -0.731182
v 0.085188 -0.596457 -0.094575
v 0.085188 -0.583517 -0.125903
v 0.078730 -0.518819 -0.136799
v 0.117828 -0.424015 -0.133505
v 0.114951 -0.518819 -0.136799
v 0.121410 -0.583517 -0.125903
v 0.051124 -0.340585 -0.251541
v 0.121410 -0.596457 -0.094575
v 0.066969 -0.411809 -0.218646
v 0.121410 -0.617569 -0.084221
v 0.078730 -0.526991 -0.192644
v 0.121410 -0.616207 -0.166084
v 0.114951 -0.526991 -0.192644
v 0.120116 -0.411809 -0.207440
v 0.067767 -0.424750 -0.131131
v 0.107735 -0.312030 -0.244980
v 0.094764 -0.356592 -0.630254
v 0.114656 -0.472065 -0.747869
v 0.118301 -0.543064 -0.754016
v 0.118301 -0.599603 -0.671183
v 0.118301 -0.593047 -0.695022
v 0.118301 -0.539023 -0.705047
v 0.114656 -0.492328 -0.695022
v 0.098336 -0.428676 -0.581201
v 0.082460 -0.616290 -0.662243
v 0.082460 -0.616290 -0.731182
v 0.058690 -0.356592 -0.637624
v 0.078815 -0.472065 -0.747869
v 0.082460 -0.543064 -0.754016
v 0.082460 -0.599603 -0.671183
v 0.082460 -0.593047 -0.695022
v 0.082460 -0.539023 -0.705047
v 0.078815 -0.492328 -0.695022
v 0.058690 -0.428676 -0.581201
v 0.098336 -0.428676 -0.581201
v 0.036514 -0.305749 -0.508334
v 0.019744 -0.219635 -0.652593
v -0.000000 -0.222658 -0.657768
v 0.010386 -0.196127 -0.664409
v 0.013116 -0.207230 -0.670565
v -0.000000 -0.192146 -0.664539
v -0.000000 -0.208249 -0.674496
v -0.118301 -0.616290 -0.662243
v -0.085188 -0.616207 -0.166084
v -0.042844 -0.329895 -0.125883
v -0.085188 -0.617569 -0.084221
v -0.047398 -0.102753 -0.154045
v -0.038238 -0.137186 -0.284127
v -0.021100 -0.160710 -0.433197
v -0.054441 -0.165725 -0.100301
v -0.093143 -0.198557 -0.267322
v -0.101161 -0.257227 -0.265247
v -0.101161 -0.235054 -0.124556
v -0.071746 -0.199786 -0.432677
v -0.038672 -0.289990 -0.438864
v -0.065144 -0.253018 -0.433897
v -0.028069 -0.167374 -0.548309
v -0.083538 -0.202923 -0.534827
v -0.073028 -0.292920 -0.508699
v -0.091555 -0.261594 -0.517001
v -0.016005 -0.202099 -0.645455
v -0.067256 -0.234721 -0.633170
v -0.028069 -0.258677 -0.668486
v -0.079966 -0.272102 -0.633141
v -0.028069 -0.308582 -0.659426
v -0.107479 -0.300387 -0.135009
v -0.118301 -0.616290 -0.731182
v -0.085188 -0.596457 -0.094575
v -0.085188 -0.583517 -0.125903
v -0.078730 -0.518819 -0.136799
v -0.117828 -0.424015 -0.133505
v -0.114951 -0.518819 -0.136799
v -0.121409 -0.583517 -0.125903
v -0.051124 -0.340585 -0.251541
v -0.121409 -0.596457 -0.094575
v -0.066969 -0.411809 -0.218646
v -0.121409 -0.617569 -0.084221
v -0.078730 -0.526991 -0.192644
v -0.121409 -0.616207 -0.166084
v -0.114951 -0.526991 -0.192644
v -0.120116 -0.411809 -0.207440
v -0.067767 -0.424750 -0.131131
v -0.107735 -0.312030 -0.244980
v -0.094764 -0.356592 -0.630254
v -0.114656 -0.472065 -0.747869
v -0.118301 -0.543064 -0.754016
v -0.118301 -0.599603 -0.671183
v -0.118301 -0.593047 -0.695022
v -0.118301 -0.539023 -0.705047
v -0.114656 -0.492328 -0.695022
v -0.098336 -0.428676 -0.581201
v -0.082460 -0.616290 -0.662243
v -0.082460 -0.616290 -0.731182
v -0.058690 -0.356592 -0.637624
v -0.078815 -0.472065 -0.747869
v -0.082460 -0.543064 -0.754016
v -0.082460 -0.599603 -0.671183
v -0.082460 -0.593047 -0.695022
v -0.082460 -0.539023 -0.705047
v -0.078815 -0.492328 -0.695022
v -0.058690 -0.428676 -0.581201
v -0.098336 -0.428676 -0.581201
v -0.036514 -0.305749 -0.508334
v -0.019744 -0.219635 -0.652593
v -0.010386 -0.196127 -0.664409
v -0.013116 -0.207230 -0.670565
vn 0.9641 0.2637 -0.0312
vn 0.9787 0.0290 0.2030
vn 0.8837 0.0840 0.4604
vn 0.9798 -0.0445 0.1951
vn 0.6497 -0.2806 0.7065
vn 0.3660 -0.9273 0.0788
vn 0.9053 -0.4246 0.0046
vn 0.3083 0.9441 0.1167
vn 0.4459 0.5724 0.6881
vn 0.3480 -0.9375 -0.0067
vn 0.9793 0.2024 -0.0013
vn 0.2236 0.9747 -0.0003
vn -0.8963 0.3815 0.2259
vn -0.3471 0.1454 -0.9265
vn 0.3529 0.9327 0.0744
vn 0.8914 -0.1611 0.4236
vn 0.1714 0.9124 -0.3717
vn 0.8825 0.1610 0.4419
vn 0.9786 0.0098 0.2057
vn -0.9641 0.2637 -0.0312
vn -0.9787 0.0290 0.2030
vn -0.8837 0.0840 0.4604
vn -0.9798 -0.0445 0.1951
vn -0.6497 -0.2806 0.7065
vn -0.3660 -0.9273 0.0788
vn -0.9053 -0.4246 0.0046
vn -0.3083 0.9441 0.1167
vn -0.4459 0.5724 0.6881
vn -0.3480 -0.9375 -0.0067
vn -0.9793 0.2024 -0.0013
vn -0.2236 0.9747 -0.0003
vn 0.8963 0.3815 0.2259
vn 0.3471 0.1454 -0.9265
vn -0.3529 0.9327 0.0744
vn -0.8914 -0.1611 0.4236
vn -0.1714 0.9124 -0.3717
vn -0.8825 0.1610 0.4419
vn -0.9786 0.0098 0.2057
vn 0.3746 0.5327 -0.7589
vn 0.9214 0.3859 0.0469
vn 0.9855 0.0112 -0.1693
vn 0.7895 -0.5030 0.3516
vn 0.9791 0.0420 0.1992
vn 0.5741 0.8187 0.0126
vn 0.2060 0.9773 -0.0497
vn 0.3674 -0.9091 0.1966
vn 0.5632 0.7539 -0.3382
vn 0.2353 0.9064 -0.3507
vn 0.9704 0.1794 -0.1615
vn 0.0443 -0.2347 -0.9711
vn 0.5354 -0.1409 0.8328
vn 0.3516 -0.2289 0.9077
vn 0.9990 0.0438 -0.0084
vn -0.0000 0.9642 0.2652
vn 0.1226 -0.1697 -0.9778
vn -0.0000 0.1661 0.9861
vn -0.0000 0.4403 0.8978
vn -0.0000 -0.2853 -0.9584
vn 0.0279 -0.0462 0.9985
vn 0.2352 -0.3367 -0.9118
vn -0.0000 0.9243 0.3818
vn -0.0000 -0.9999 -0.0166
vn 0.8213 -0.5363 -0.1944
vn 0.2610 -0.3071 -0.9152
vn 0.9943 0.1056 -0.0132
vn 0.9945 0.1036 0.0141
vn 0.9992 -0.0374 0.0165
vn 0.9966 0.0758 -0.0322
vn 1.0000 -0.0000 -0.0000
vn -0.1127 -0.4990 0.8592
vn -0.0000 0.1824 0.9832
vn 0.1000 -0.0009 0.9950
vn 0.2192 -0.9752 0.0308
vn -0.9691 -0.2440 -0.0366
vn -0.9942 -0.1078 0.0019
vn -0.9966 -0.0758 0.0322
vn -1.0000 -0.0000 -0.0000
vn 0.2627 -0.9352 -0.2376
vn -0.0000 -1.0000 -0.0000
vn -0.0000 0.4722 0.8815
vn -0.0000 0.0862 -0.9963
vn -0.0000 -0.2099 0.9777
vn -0.0000 -0.8728 0.4881
vn -0.0000 -0.2977 -0.9547
vn 0.0721 0.7068 -0.7037
vn 0.9913 0.1130 0.0677
vn 0.9981 0.0605 0.0096
vn 0.0844 -0.4763 0.8752
vn 0.6969 -0.2324 0.6784
vn 0.5742 0.0727 -0.8155
vn 0.2559 -0.2169 -0.9421
vn -0.8533 -0.5182 0.0574
vn -0.9899 -0.1081 -0.0914
vn -0.9981 -0.0605 -0.0096
vn 0.2800 -0.9596 -0.0284
vn 0.2622 0.9282 0.2642
vn 0.9420 0.2907 -0.1678
vn 0.2629 -0.7385 -0.6209
vn 0.2085 0.5138 -0.8322
vn 0.1736 0.4027 -0.8987
vn 0.5130 0.3293 -0.7927
vn 0.2884 0.9108 -0.2953
vn -0.2884 0.9108 -0.2953
vn -0.9214 0.3859 0.0469
vn -0.9855 0.0112 -0.1693
vn -0.6945 0.7056 -0.1407
vn -0.7895 -0.5030 0.3516
vn -0.9791 0.0420 0.1992
vn -0.5741 0.8187 0.0126
vn -0.2060 0.9773 -0.0497
vn -0.3674 -0.9091 0.1966
vn -0.5632 0.7539 -0.3382
vn -0.2353 0.9064 -0.3507
vn -0.9704 0.1794 -0.1615
vn -0.0443 -0.2347 -0.9711
vn -0.5354 -0.1409 0.8328
vn -0.3516 -0.2289 0.9077
vn -0.9794 0.1677 -0.1129
vn -0.1226 -0.1697 -0.9778
vn -0.0279 -0.0462 0.9985
vn -0.2352 -0.3367 -0.9118
vn -0.8213 -0.5363 -0.1944
vn -0.2610 -0.3071 -0.9152
vn -0.9943 0.1056 -0.0132
vn -0.9945 0.1036 0.0141
vn -0.9992 -0.0374 0.0165
vn -0.9966 0.0758 -0.0322
vn 0.1127 -0.4990 0.8592
vn -0.1000 -0.0009 0.9950
vn -0.2192 -0.9752 0.0308
vn 0.9691 -0.2440 -0.0366
vn 0.9942 -0.1078 0.0019
vn 0.9966 -0.0758 0.0322
vn -0.2627 -0.9352 -0.2376
vn -0.0721 0.7068 -0.7037
vn -0.9913 0.1130 0.0677
vn -0.9981 0.0605 0.0096
vn -0.0844 -0.4763 0.8752
vn -0.6969 -0.2324 0.6784
vn 0.8533 -0.5182 0.0574
vn -0.2559 -0.2169 -0.9421
vn 0.9864 -0.1013 -0.1294
vn 0.9899 -0.1081 -0.0914
vn 0.9981 -0.0605 -0.0096
vn -0.2800 -0.9596 -0.0284
vn -0.2622 0.9282 0.2642
vn -0.9420 0.2907 -0.1678
vn -0.2629 -0.7385 -0.6209
vn -0.2085 0.5138 -0.8322
vn -0.1736 0.4027 -0.8987
vn -0.5130 0.3293 -0.7927
vn 0.6993 -0.1678 0.6949
vn 0.9869 0.0279 0.1591
vn -0.3746 0.5327 -0.7589
vn 0.9712 0.1892 -0.1448
vn -0.9712 0.1892 -0.1448
vn -0.9869 0.0279 0.1591
vn -0.6993 -0.1678 0.6949
vn 0.6945 0.7056 -0.1407
vn 0.9524 0.2525 0.1710
vn 0.7563 0.6173 -0.2167
vn -0.9524 0.2525 0.1710
vn -0.7563 0.6173 -0.2167
vn -0.9864 -0.1013 -0.1294
vn -0.5742 0.0727 -0.8155
vn 0.9794 0.1677 -0.1129
vn -0.9990 0.0438 -0.0084
vn 0.1919 0.9669 -0.1684
vn -0.1919 0.9669 -0.1684
vt 0.000000 0.000000
s 0
usemtl 
f 13/1/1 10/1/1 15/1/1
f 22/1/2 18/1/2 14/1/2
f 14/1/3 13/1/3 22/1/3
f 11/1/4 15/1/4 10/1/4
f 6/1/5 11/1/5 10/1/5 7/1/5
f 21/1/6 19/1/6 15/1/6 11/1/6 6/1/6
f 12/1/7 18/1/7 15/1/7
f 5/1/8 7/1/8 10/1/8 13/1/8
f 3/1/9 5/1/9 13/1/9 14/1/9
f 12/1/10 15/1/10 19/1/10 20/1/10 4/1/10
f 16/1/11 14/1/11 18/1/11
f 8/1/12 3/1/12 14/1/12 16/1/12
f 17/1/13 8/1/13 9/1/13
f 16/1/14 17/1/14 9/1/14
f 8/1/15 17/1/15 2/1/15 3/1/15
f 9/1/16 8/1/16 16/1/16
f 1/1/17 2/1/17 17/1/17 16/1/17
f 15/1/18 22/1/18 13/1/18
f 22/1/19 15/1/19 18/1/19
f 28/1/20 30/1/20 25/1/20
f 34/1/21 29/1/21 33/1/21
f 29/1/22 34/1/22 28/1/22
f 26/1/23 25/1/23 30/1/23
f 6/1/24 7/1/24 25/1/24 26/1/24
f 21/1/25 6/1/25 26/1/25 30/1/25 19/1/25
f 27/1/26 30/1/26 33/1/26
f 5/1/27 28/1/27 25/1/27 7/1/27
f 3/1/28 29/1/28 28/1/28 5/1/28
f 27/1/29 4/1/29 20/1/29 19/1/29 30/1/29
f 31/1/30 33/1/30 29/1/30
f 23/1/31 31/1/31 29/1/31 3/1/31
f 32/1/32 24/1/32 23/1/32
f 31/1/33 24/1/33 32/1/33
f 23/1/34 3/1/34 2/1/34 32/1/34
f 24/1/35 31/1/35 23/1/35
f 1/1/36 31/1/36 32/1/36 2/1/36
f 30/1/37 28/1/37 34/1/37
f 34/1/38 33/1/38 30/1/38
f 16/1/39 48/1/39 36/1/39 1/1/39
f 54/1/40 53/1/40 58/1/40 57/1/40
f 54/1/41 57/1/41 63/1/41 60/1/41
f 63/1/42 61/1/42 66/1/42 68/1/42
f 60/1/43 63/1/43 68/1/43 65/1/43
f 52/1/44 60/1/44 65/1/44 64/1/44
f 51/1/45 52/1/45 64/1/45 59/1/45
f 61/1/46 62/1/46 67/1/46 114/1/46 66/1/46
f 64/1/47 65/1/47 71/1/47 70/1/47
f 59/1/48 64/1/48 70/1/48 69/1/48
f 68/1/49 74/1/49 71/1/49 65/1/49
f 72/1/50 73/1/50 76/1/50 75/1/50
f 38/1/51 58/1/51 53/1/51 37/1/51
f 58/1/52 38/1/52 46/1/52 77/1/52
f 95/1/53 68/1/53 113/1/53
f 99/1/54 109/1/54 108/1/54 98/1/54
f 92/1/55 91/1/55 89/1/55 87/1/55
f 84/1/56 83/1/56 81/1/56 80/1/56
f 88/1/57 86/1/57 79/1/57 47/1/57
f 91/1/58 90/1/58 45/1/58 89/1/58
f 83/1/59 82/1/59 93/1/59 81/1/59
f 94/1/60 92/1/60 87/1/60 85/1/60
f 86/1/61 84/1/61 80/1/61 79/1/61
f 90/1/62 88/1/62 47/1/62 45/1/62
f 61/1/63 63/1/63 57/1/63 85/1/63
f 85/1/64 57/1/64 94/1/64
f 57/1/65 58/1/65 77/1/65 94/1/65
f 94/1/66 77/1/66 82/1/66 92/1/66
f 82/1/67 83/1/67 91/1/67 92/1/67
f 83/1/68 84/1/68 90/1/68 91/1/68
f 84/1/69 86/1/69 88/1/69 90/1/69
f 55/1/70 46/1/70 38/1/70
f 100/1/71 110/1/71 109/1/71 99/1/71
f 93/1/72 82/1/72 77/1/72 46/1/72
f 85/1/73 46/1/73 55/1/73 56/1/73
f 46/1/74 85/1/74 87/1/74 93/1/74
f 89/1/75 81/1/75 93/1/75 87/1/75
f 81/1/76 89/1/76 45/1/76 80/1/76
f 80/1/77 45/1/77 47/1/77 79/1/77
f 85/1/78 56/1/78 62/1/78 61/1/78
f 39/1/79 103/1/79 104/1/79 78/1/79
f 98/1/80 108/1/80 103/1/80 39/1/80
f 97/1/81 107/1/81 106/1/81 96/1/81
f 101/1/82 111/1/82 110/1/82 100/1/82
f 102/1/83 112/1/83 111/1/83 101/1/83
f 78/1/84 104/1/84 107/1/84 97/1/84
f 96/1/85 106/1/85 105/1/85 95/1/85
f 113/1/86 102/1/86 101/1/86 96/1/86 95/1/86
f 100/1/87 97/1/87 96/1/87 101/1/87
f 99/1/69 78/1/69 97/1/69 100/1/69
f 98/1/69 39/1/69 78/1/69 99/1/69
f 114/1/88 112/1/88 102/1/88 113/1/88 66/1/88
f 68/1/89 66/1/89 113/1/89
f 74/1/90 95/1/90 73/1/90
f 73/1/91 95/1/91 105/1/91 76/1/91
f 105/1/92 114/1/92 76/1/92
f 111/1/93 112/1/93 105/1/93 106/1/93
f 110/1/94 111/1/94 106/1/94 107/1/94
f 109/1/77 110/1/77 107/1/77 104/1/77
f 108/1/77 109/1/77 104/1/77 103/1/77
f 76/1/95 114/1/95 67/1/95 75/1/95
f 119/1/96 69/1/96 70/1/96 117/1/96
f 70/1/97 115/1/97 118/1/97 117/1/97
f 118/1/98 115/1/98 116/1/98 120/1/98
f 118/1/99 120/1/99 119/1/99 117/1/99
f 72/1/100 116/1/100 115/1/100 73/1/100
f 71/1/101 74/1/101 73/1/101 115/1/101 70/1/101
f 48/1/102 49/1/102 50/1/102 36/1/102
f 125/1/103 36/1/103 50/1/103 126/1/103
f 129/1/104 130/1/104 131/1/104 128/1/104
f 129/1/105 132/1/105 134/1/105 130/1/105
f 126/1/106 127/1/106 132/1/106 129/1/106
f 134/1/107 138/1/107 137/1/107 133/1/107
f 132/1/108 136/1/108 138/1/108 134/1/108
f 127/1/109 135/1/109 136/1/109 132/1/109
f 51/1/110 59/1/110 135/1/110 127/1/110
f 133/1/111 137/1/111 181/1/111 67/1/111 62/1/111
f 135/1/112 139/1/112 140/1/112 136/1/112
f 59/1/113 69/1/113 139/1/113 135/1/113
f 138/1/114 136/1/114 140/1/114 142/1/114
f 72/1/115 75/1/115 143/1/115 141/1/115
f 38/1/116 37/1/116 128/1/116 131/1/116
f 131/1/117 144/1/117 123/1/117 38/1/117
f 142/1/118 162/1/118 138/1/118
f 166/1/54 165/1/54 175/1/54 176/1/54
f 159/1/119 154/1/119 156/1/119 158/1/119
f 151/1/56 147/1/56 148/1/56 150/1/56
f 155/1/57 124/1/57 146/1/57 153/1/57
f 158/1/58 156/1/58 122/1/58 157/1/58
f 150/1/120 148/1/120 160/1/120 149/1/120
f 161/1/121 152/1/121 154/1/121 159/1/121
f 153/1/61 146/1/61 147/1/61 151/1/61
f 157/1/62 122/1/62 124/1/62 155/1/62
f 133/1/122 152/1/122 130/1/122 134/1/122
f 152/1/123 161/1/123 130/1/123
f 130/1/124 161/1/124 144/1/124 131/1/124
f 161/1/125 159/1/125 149/1/125 144/1/125
f 149/1/126 159/1/126 158/1/126 150/1/126
f 150/1/127 158/1/127 157/1/127 151/1/127
f 151/1/77 157/1/77 155/1/77 153/1/77
f 55/1/128 38/1/128 123/1/128
f 167/1/71 166/1/71 176/1/71 177/1/71
f 160/1/129 123/1/129 144/1/129 149/1/129
f 152/1/130 56/1/130 55/1/130 123/1/130
f 123/1/131 160/1/131 154/1/131 152/1/131
f 156/1/132 154/1/132 160/1/132 148/1/132
f 148/1/133 147/1/133 122/1/133 156/1/133
f 147/1/69 146/1/69 124/1/69 122/1/69
f 152/1/134 133/1/134 62/1/134 56/1/134
f 121/1/79 145/1/79 171/1/79 170/1/79
f 165/1/80 121/1/80 170/1/80 175/1/80
f 164/1/81 163/1/81 173/1/81 174/1/81
f 168/1/82 167/1/82 177/1/82 178/1/82
f 169/1/83 168/1/83 178/1/83 179/1/83
f 145/1/84 164/1/84 174/1/84 171/1/84
f 163/1/135 162/1/135 172/1/135 173/1/135
f 180/1/136 162/1/136 163/1/136 168/1/136 169/1/136
f 167/1/137 168/1/137 163/1/137 164/1/137
f 166/1/77 167/1/77 164/1/77 145/1/77
f 165/1/77 166/1/77 145/1/77 121/1/77
f 181/1/138 137/1/138 180/1/138 169/1/138 179/1/138
f 138/1/139 180/1/139 137/1/139
f 172/1/140 143/1/140 181/1/140
f 141/1/141 143/1/141 172/1/141 162/1/141
f 179/1/142 172/1/142 181/1/142
f 178/1/143 173/1/143 172/1/143 179/1/143
f 177/1/144 174/1/144 173/1/144 178/1/144
f 176/1/69 171/1/69 174/1/69 177/1/69
f 175/1/69 170/1/69 171/1/69 176/1/69
f 143/1/145 75/1/145 67/1/145 181/1/145
f 119/1/146 183/1/146 139/1/146 69/1/146
f 139/1/147 183/1/147 184/1/147 182/1/147
f 184/1/148 120/1/148 116/1/148 182/1/148
f 184/1/149 183/1/149 119/1/149 120/1/149
f 72/1/150 141/1/150 182/1/150 116/1/150
f 140/1/151 139/1/151 182/1/151 141/1/151 142/1/151
f 12/1/152 4/1/152 37/1/152 53/1/152
f 12/1/153 53/1/153 48/1/153 18/1/153
f 31/1/154 1/1/154 36/1/154 125/1/154
f 18/1/155 48/1/155 16/1/155
f 31/1/156 125/1/156 33/1/156
f 27/1/157 33/1/157 125/1/157 128/1/157
f 27/1/158 128/1/158 37/1/158 4/1/158
f 54/1/159 60/1/159 52/1/159 49/1/159
f 53/1/160 54/1/160 48/1/160
f 49/1/161 48/1/161 54/1/161
f 128/1/162 125/1/162 129/1/162
f 125/1/163 126/1/163 129/1/163
f 112/1/164 114/1/164 105/1/164
f 142/1/165 141/1/165 162/1/165
f 74/1/166 68/1/166 95/1/166
f 162/1/167 180/1/167 138/1/167
f 51/1/168 50/1/168 49/1/168 52/1/168
f 51/1/169 127/1/169 126/1/169 50/1/169
l 40 41
l 43 44
l 50 35
l 116 69
